<?xml version="1.0" standalone="no"?>
<!DOCTYPE svg PUBLIC "-//W3C//DTD SVG 20010904//EN"
 "http://www.w3.org/TR/2001/REC-SVG-20010904/DTD/svg10.dtd">
<svg version="1.0" xmlns="http://www.w3.org/2000/svg"
 width="784.000000pt" height="785.000000pt" viewBox="0 0 784.000000 785.000000"
 preserveAspectRatio="xMidYMid meet">
<metadata>
Created by potrace 1.16, written by Peter Selinger 2001-2019
</metadata>
<g transform="translate(0.000000,785.000000) scale(0.100000,-0.100000)"
fill="#000000" stroke="none">
<path d="M3580 7608 c-362 -41 -720 -127 -995 -238 -271 -110 -579 -274 -750
-399 -27 -20 -66 -47 -87 -61 -149 -100 -518 -451 -675 -640 -111 -135 -267
-362 -348 -505 -49 -87 -151 -288 -168 -332 -9 -23 -25 -61 -35 -85 -130 -294
-239 -727 -269 -1063 -10 -116 -10 -604 0 -720 30 -336 139 -769 269 -1063 10
-24 26 -62 35 -85 35 -91 165 -333 247 -462 160 -251 297 -421 526 -648 235
-232 386 -355 635 -513 130 -83 371 -212 462 -247 23 -9 61 -25 85 -35 294
-130 727 -239 1063 -269 116 -10 604 -10 720 0 336 30 769 139 1063 269 24 10
62 26 85 35 91 35 333 165 462 247 251 160 421 297 648 526 232 235 355 386
513 635 83 130 212 371 247 462 9 23 25 61 35 85 130 294 239 727 269 1063 10
116 10 604 0 720 -30 336 -139 769 -269 1063 -10 24 -26 62 -35 85 -17 44
-119 245 -168 332 -81 143 -237 370 -348 505 -157 189 -526 540 -675 640 -21
14 -60 41 -87 61 -147 108 -479 288 -690 374 -49 20 -101 41 -115 47 -72 29
-289 95 -420 127 -302 74 -558 102 -905 100 -137 -1 -284 -6 -325 -11z m840
-218 c645 -95 1178 -325 1712 -740 107 -83 445 -421 528 -528 445 -572 692
-1180 760 -1871 13 -133 13 -519 0 -652 -68 -691 -315 -1299 -760 -1871 -83
-107 -421 -445 -528 -528 -572 -445 -1180 -692 -1869 -759 -144 -15 -512 -15
-656 0 -689 67 -1297 314 -1869 759 -107 83 -445 421 -528 528 -445 572 -692
1180 -760 1871 -13 133 -13 519 0 652 68 691 315 1299 760 1871 83 107 421
445 528 528 534 415 1066 645 1712 740 280 41 689 41 970 0z"/>
<path d="M2554 5789 c60 -254 125 -512 132 -519 9 -8 764 -73 771 -67 2 3
-680 461 -880 592 l-28 18 5 -24z"/>
<path d="M4630 5653 c0 -4 51 -104 114 -222 63 -119 120 -228 127 -243 7 -16
20 -28 31 -28 19 0 122 23 808 179 544 124 541 123 537 127 -2 2 -143 20 -313
39 -396 46 -1229 143 -1271 149 -18 3 -33 2 -33 -1z"/>
<path d="M4210 5375 l-235 -235 363 0 364 0 -78 148 c-43 81 -99 186 -124 234
-25 49 -47 88 -50 88 -3 0 -111 -106 -240 -235z"/>
<path d="M1611 5092 c9 -25 1345 -1429 1353 -1422 11 11 695 1334 691 1338 -1
2 -225 21 -496 44 -476 39 -513 41 -1023 45 -355 3 -527 2 -525 -5z"/>
<path d="M3826 4948 c-22 -35 -736 -1420 -736 -1428 0 -11 619 -765 629 -765
4 0 167 153 362 341 195 187 373 358 396 380 l43 39 54 350 c82 527 166 1078
166 1093 0 9 -97 12 -450 12 l-450 0 -14 -22z"/>
<path d="M3001 3133 c-88 -456 -224 -1247 -219 -1268 2 -11 529 484 771 724
l38 37 -257 315 c-141 173 -266 325 -279 337 l-22 24 -32 -169z"/>
</g>
</svg>
